<svg xmlns="http://www.w3.org/2000/svg" xmlns:xlink="http://www.w3.org/1999/xlink" version="1.1" width="80" height="80" viewBox="0 45 258 206" xml:space="preserve">

<defs>
</defs>
<g style="stroke: none; stroke-width: 0; stroke-dasharray: none; stroke-linecap: butt; stroke-linejoin: miter; stroke-miterlimit: 10; fill: none; fill-rule: nonzero; opacity: 1;" transform="translate(1.4065934065934016 1.4065934065934016) scale(2.81 2.81)" >
	<path d="M 65.922 50.523 h -6.187 c -0.553 0 -1 -0.447 -1 -1 s 0.447 -1 1 -1 h 5.187 v -6.296 h -7.234 c -0.553 0 -1 -0.448 -1 -1 s 0.447 -1 1 -1 h 8.234 c 0.553 0 1 0.448 1 1 v 8.296 C 66.922 50.076 66.475 50.523 65.922 50.523 z" style="stroke: none; stroke-width: 1; stroke-dasharray: none; stroke-linecap: butt; stroke-linejoin: miter; stroke-miterlimit: 10; fill: rgb(0,0,0); fill-rule: nonzero; opacity: 1;" transform=" matrix(1 0 0 1 0 0) " stroke-linecap="round" />
	<path d="M 53.783 50.523 H 24.078 c -0.552 0 -1 -0.447 -1 -1 v -8.296 c 0 -0.552 0.448 -1 1 -1 h 7.5 c 0.552 0 1 0.448 1 1 s -0.448 1 -1 1 h -6.5 v 6.296 h 28.706 c 0.553 0 1 0.447 1 1 S 54.336 50.523 53.783 50.523 z" style="stroke: none; stroke-width: 1; stroke-dasharray: none; stroke-linecap: butt; stroke-linejoin: miter; stroke-miterlimit: 10; fill: rgb(0,0,0); fill-rule: nonzero; opacity: 1;" transform=" matrix(1 0 0 1 0 0) " stroke-linecap="round" />
	<path d="M 24.078 65.385 h -8.296 c -0.552 0 -1 -0.447 -1 -1 V 26.366 c 0 -0.552 0.448 -1 1 -1 h 8.296 c 0.552 0 1 0.448 1 1 v 38.019 C 25.078 64.938 24.63 65.385 24.078 65.385 z M 16.782 63.385 h 6.296 V 27.366 h -6.296 V 63.385 z" style="stroke: none; stroke-width: 1; stroke-dasharray: none; stroke-linecap: butt; stroke-linejoin: miter; stroke-miterlimit: 10; fill: rgb(0,0,0); fill-rule: nonzero; opacity: 1;" transform=" matrix(1 0 0 1 0 0) " stroke-linecap="round" />
	<path d="M 15.782 58.909 H 7.485 c -0.552 0 -1 -0.447 -1 -1 V 32.841 c 0 -0.552 0.448 -1 1 -1 h 8.296 c 0.552 0 1 0.448 1 1 v 25.068 C 16.782 58.462 16.334 58.909 15.782 58.909 z M 8.485 56.909 h 6.296 V 33.841 H 8.485 V 56.909 z" style="stroke: none; stroke-width: 1; stroke-dasharray: none; stroke-linecap: butt; stroke-linejoin: miter; stroke-miterlimit: 10; fill: rgb(0,0,0); fill-rule: nonzero; opacity: 1;" transform=" matrix(1 0 0 1 0 0) " stroke-linecap="round" />
	<path d="M 74.219 65.385 h -8.297 c -0.553 0 -1 -0.447 -1 -1 V 26.366 c 0 -0.552 0.447 -1 1 -1 h 8.297 c 0.553 0 1 0.448 1 1 v 38.019 C 75.219 64.938 74.771 65.385 74.219 65.385 z M 66.922 63.385 h 6.297 V 27.366 h -6.297 V 63.385 z" style="stroke: none; stroke-width: 1; stroke-dasharray: none; stroke-linecap: butt; stroke-linejoin: miter; stroke-miterlimit: 10; fill: rgb(0,0,0); fill-rule: nonzero; opacity: 1;" transform=" matrix(1 0 0 1 0 0) " stroke-linecap="round" />
	<path d="M 82.515 58.909 h -8.296 c -0.553 0 -1 -0.447 -1 -1 V 32.841 c 0 -0.552 0.447 -1 1 -1 h 8.296 c 0.553 0 1 0.448 1 1 v 25.068 C 83.515 58.462 83.067 58.909 82.515 58.909 z M 75.219 56.909 h 6.296 V 33.841 h -6.296 V 56.909 z" style="stroke: none; stroke-width: 1; stroke-dasharray: none; stroke-linecap: butt; stroke-linejoin: miter; stroke-miterlimit: 10; fill: rgb(0,0,0); fill-rule: nonzero; opacity: 1;" transform=" matrix(1 0 0 1 0 0) " stroke-linecap="round" />
	<path d="M 7.485 50.523 H 1 c -0.552 0 -1 -0.447 -1 -1 v -8.296 c 0 -0.552 0.448 -1 1 -1 h 6.485 c 0.552 0 1 0.448 1 1 v 8.296 C 8.485 50.076 8.038 50.523 7.485 50.523 z M 2 48.523 h 4.485 v -6.296 H 2 V 48.523 z" style="stroke: none; stroke-width: 1; stroke-dasharray: none; stroke-linecap: butt; stroke-linejoin: miter; stroke-miterlimit: 10; fill: rgb(0,0,0); fill-rule: nonzero; opacity: 1;" transform=" matrix(1 0 0 1 0 0) " stroke-linecap="round" />
	<path d="M 89 50.523 h -6.485 c -0.553 0 -1 -0.447 -1 -1 v -8.296 c 0 -0.552 0.447 -1 1 -1 H 89 c 0.553 0 1 0.448 1 1 v 8.296 C 90 50.076 89.553 50.523 89 50.523 z M 83.515 48.523 H 88 v -6.296 h -4.485 V 48.523 z" style="stroke: none; stroke-width: 1; stroke-dasharray: none; stroke-linecap: butt; stroke-linejoin: miter; stroke-miterlimit: 10; fill: rgb(0,0,0); fill-rule: nonzero; opacity: 1;" transform=" matrix(1 0 0 1 0 0) " stroke-linecap="round" />
	<path d="M 35.701 74.903 c -0.552 0 -1 -0.447 -1 -1 v -9.751 c 0 -2.271 -0.799 -4.484 -2.25 -6.231 l -0.474 -0.571 c -1.749 -2.105 -2.712 -4.772 -2.712 -7.509 c 0 -0.553 0.448 -1 1 -1 s 1 0.447 1 1 c 0 2.271 0.799 4.483 2.25 6.231 l 0.474 0.571 c 1.749 2.105 2.711 4.772 2.711 7.509 v 9.751 C 36.701 74.456 36.253 74.903 35.701 74.903 z" style="stroke: none; stroke-width: 1; stroke-dasharray: none; stroke-linecap: butt; stroke-linejoin: miter; stroke-miterlimit: 10; fill: rgb(0,0,0); fill-rule: nonzero; opacity: 1;" transform=" matrix(1 0 0 1 0 0) " stroke-linecap="round" />
	<path d="M 54.299 74.903 c -0.553 0 -1 -0.447 -1 -1 v -9.751 c 0 -2.736 0.963 -5.403 2.712 -7.509 l 0.475 -0.571 c 1.451 -1.748 2.25 -3.961 2.25 -6.231 V 46.05 c 0 -0.967 -0.787 -1.754 -1.754 -1.754 h -8.356 c -1.253 0 -2.272 1.02 -2.272 2.272 c 0 1.078 0.877 1.955 1.955 1.955 h 5.476 c 0.553 0 1 0.447 1 1 s -0.447 1 -1 1 h -5.476 c -2.181 0 -3.956 -1.774 -3.956 -3.955 c 0 -2.356 1.917 -4.272 4.273 -4.272 h 8.356 c 2.07 0 3.754 1.684 3.754 3.754 v 3.791 c 0 2.736 -0.963 5.402 -2.711 7.509 l -0.475 0.571 c -1.451 1.748 -2.251 3.961 -2.251 6.231 v 9.751 C 55.299 74.456 54.852 74.903 54.299 74.903 z" style="stroke: none; stroke-width: 1; stroke-dasharray: none; stroke-linecap: butt; stroke-linejoin: miter; stroke-miterlimit: 10; fill: rgb(0,0,0); fill-rule: nonzero; opacity: 1;" transform=" matrix(1 0 0 1 0 0) " stroke-linecap="round" />
	<path d="M 35.632 44.296 h -1.637 c -1.905 0 -3.454 -1.549 -3.454 -3.454 v -2.939 c 0 -1.905 1.549 -3.454 3.454 -3.454 h 1.637 c 1.905 0 3.454 1.549 3.454 3.454 v 2.939 C 39.086 42.747 37.537 44.296 35.632 44.296 z M 33.995 36.448 c -0.802 0 -1.454 0.652 -1.454 1.454 v 2.939 c 0 0.802 0.652 1.454 1.454 1.454 h 1.637 c 0.802 0 1.454 -0.652 1.454 -1.454 v -2.939 c 0 -0.802 -0.652 -1.454 -1.454 -1.454 H 33.995 z" style="stroke: none; stroke-width: 1; stroke-dasharray: none; stroke-linecap: butt; stroke-linejoin: miter; stroke-miterlimit: 10; fill: rgb(0,0,0); fill-rule: nonzero; opacity: 1;" transform=" matrix(1 0 0 1 0 0) " stroke-linecap="round" />
	<path d="M 42.177 44.296 H 40.54 c -1.905 0 -3.454 -1.549 -3.454 -3.454 v -3.994 c 0 -1.904 1.549 -3.454 3.454 -3.454 h 1.637 c 1.905 0 3.454 1.549 3.454 3.454 v 3.994 C 45.631 42.747 44.082 44.296 42.177 44.296 z M 40.54 35.395 c -0.802 0 -1.454 0.652 -1.454 1.454 v 3.994 c 0 0.802 0.652 1.454 1.454 1.454 h 1.637 c 0.802 0 1.454 -0.652 1.454 -1.454 v -3.994 c 0 -0.802 -0.652 -1.454 -1.454 -1.454 H 40.54 z" style="stroke: none; stroke-width: 1; stroke-dasharray: none; stroke-linecap: butt; stroke-linejoin: miter; stroke-miterlimit: 10; fill: rgb(0,0,0); fill-rule: nonzero; opacity: 1;" transform=" matrix(1 0 0 1 0 0) " stroke-linecap="round" />
	<path d="M 48.723 44.296 h -1.638 c -1.904 0 -3.454 -1.549 -3.454 -3.454 v -5.547 c 0 -1.904 1.549 -3.454 3.454 -3.454 h 1.638 c 1.904 0 3.454 1.549 3.454 3.454 v 5.547 C 52.177 42.747 50.627 44.296 48.723 44.296 z M 47.085 33.841 c -0.802 0 -1.454 0.652 -1.454 1.454 v 5.547 c 0 0.802 0.652 1.454 1.454 1.454 h 1.638 c 0.802 0 1.454 -0.652 1.454 -1.454 v -5.547 c 0 -0.802 -0.652 -1.454 -1.454 -1.454 H 47.085 z" style="stroke: none; stroke-width: 1; stroke-dasharray: none; stroke-linecap: butt; stroke-linejoin: miter; stroke-miterlimit: 10; fill: rgb(0,0,0); fill-rule: nonzero; opacity: 1;" transform=" matrix(1 0 0 1 0 0) " stroke-linecap="round" />
	<path d="M 55.268 44.296 H 53.63 c -1.904 0 -3.453 -1.549 -3.453 -3.454 v -3.994 c 0 -1.904 1.549 -3.454 3.453 -3.454 h 1.638 c 1.904 0 3.454 1.549 3.454 3.454 v 3.994 C 58.722 42.747 57.172 44.296 55.268 44.296 z M 53.63 35.395 c -0.801 0 -1.453 0.652 -1.453 1.454 v 3.994 c 0 0.802 0.652 1.454 1.453 1.454 h 1.638 c 0.802 0 1.454 -0.652 1.454 -1.454 v -3.994 c 0 -0.802 -0.652 -1.454 -1.454 -1.454 H 53.63 z" style="stroke: none; stroke-width: 1; stroke-dasharray: none; stroke-linecap: butt; stroke-linejoin: miter; stroke-miterlimit: 10; fill: rgb(0,0,0); fill-rule: nonzero; opacity: 1;" transform=" matrix(1 0 0 1 0 0) " stroke-linecap="round" />
</g>
</svg>