<?xml version="1.0" encoding="iso-8859-1"?>
<!-- Uploaded to: SVG Repo, www.svgrepo.com, Generator: SVG Repo Mixer Tools -->
<svg height="40px" width="40px" version="1.1" id="Layer_1" xmlns="http://www.w3.org/2000/svg" xmlns:xlink="http://www.w3.org/1999/xlink" 
	 viewBox="0 0 512.008 512.008" xml:space="preserve">
<path style="fill:#5D9CEC;" d="M512.004,256.004c0,141.377-114.61,256.004-255.996,256.004
	c-141.385,0-256.004-114.627-256.004-256.004C0.004,114.619,114.623,0,256.008,0C397.394,0,512.004,114.619,512.004,256.004z"/>
<g>
	<path style="fill:#A0D468;" d="M499.457,176.605c-12.016-36.845-32.703-71.087-59.86-99.025
		c-27.125-27.891-60.72-49.54-97.142-62.61l-10.641-3.82l-3.188,10.859c-1.469,4.954-2.578,8.532-3.345,10.688
		c-9.5,4.453-19.656,8.469-29.484,12.375c-31.358,12.421-63.773,25.273-86.133,54.742c-9.728,12.813-10.853,26.196-2.93,34.915
		c4.148,4.57,10.188,6.891,17.953,6.891c5.062,0,10.344-0.953,15-1.789c3.281-0.594,6.672-1.203,8.664-1.203
		c0.148,0,0.281,0.008,0.414,0.016c11.461,0.82,32.813,4.875,51.938,9.859c21.016,5.469,32.157,10.094,36.907,12.79
		c-3.188,3.797-11.734,9.665-23.173,9.665c-5.594,0-11.031-1.445-16.188-4.29c-7.891-4.352-27.641-8.484-54.86-13.344l-2.641-0.477
		c-1.141-0.203-2.445-0.305-3.977-0.305c-11.438,0-38.415,5.539-58.61,26.516c-17.664,18.336-26.023,43.61-24.844,75.11
		c0.727,19.367,7.297,35.805,19.008,47.523c11.883,11.907,28.438,18.298,47.868,18.532c2.312,0.016,4.633,0.016,6.938,0.016h1.547
		c11.227,0,22.828,0,31.406,3.234c5.493,2.062,12.259,6.125,15.915,19.313c3.781,13.719,4.875,27.75,6,42.609
		c1.062,13.984,2.188,28.453,5.75,42.828c7.062,28.47,21.609,35.579,32.562,36.533c1.562,0.125,3.125,0.188,4.656,0.188l0,0
		c24.376,0,40.563-16.407,53.798-31.798c3.156-3.673,6.609-7.22,10.266-10.97c8.063-8.266,16.407-16.812,22.345-27.672
		c6.859-12.5,9.312-25.625,11.719-38.297c2.25-12.031,4.406-23.392,10.125-33.329c0.781-1.344,1.688-2.875,2.688-4.609
		c29.048-49.806,36.032-68.243,29.892-78.938c-2.766-4.797-7.828-7.391-13.735-6.938c-2.812,0.219-5.594,0.328-8.25,0.328
		c-17.5,0-31.969-4.813-39.703-13.204c-2.188-2.375-3.234-4.422-3.703-5.782c0.266-0.016,0.562-0.023,0.906-0.023
		c5.125,0,13,2.102,20.609,4.141c9.203,2.469,18.734,5.016,27.109,5.016c13.642,0,22.517-7.086,24.47-19.493
		c1.938-3.516,11.031-12.086,17.188-12.891l12.75-1.664L499.457,176.605z"/>
	<path style="fill:#A0D468;" d="M82.154,305.88c-8.017-11.657-17.196-22.938-25.438-34.415c-7.68-10.703-37.656-59.376-51.548-66.86
		c-3.383,16.609-5.164,33.797-5.164,51.399c0,62.313,22.267,119.408,59.267,163.814c0.031,0.031,0.086,0.047,0.164,0.047
		c2.242,0,23.095-15.5,24.985-17.109c8.211-6.969,15.086-15.484,18.164-25.969C109.764,352.381,95.654,325.505,82.154,305.88z"/>
</g>
</svg>