<?xml version="1.0" encoding="iso-8859-1"?>
<!-- Uploaded to: SVG Repo, www.svgrepo.com, Generator: SVG Repo Mixer Tools -->
<svg height="40px" width="40px" version="1.1" id="Layer_1" xmlns="http://www.w3.org/2000/svg" xmlns:xlink="http://www.w3.org/1999/xlink" 
	 viewBox="0 0 498.019 498.019" xml:space="preserve">
<g>
	<path style="fill:#6DC82A;" d="M402.113,339.562c-0.009,0-156.486,0-156.486,0l55.154,55.154l-55.723,55.723h157.44l31.994-55.767
		l-1.04-0.591L402.113,339.562z"/>
	<path style="fill:#6DC82A;" d="M174.307,203.892l-75.316,20.326l-20.536-76.067L0,284.637l31.775,54.925c0.011,0,64.556,0,64.556,0
		L174.307,203.892z"/>
	<path style="fill:#6DC82A;" d="M249.208,73.576c0.009,0,77.668,135.111,77.668,135.111l20.337-75.316l76.082,20.545l-78.457-136.49
		h-63.965v1.062L249.208,73.576z"/>
	<polygon style="fill:#91DC5A;" points="215.462,309.396 197.643,309.396 197.643,339.562 96.331,339.562 31.786,339.562 
		95.937,450.439 197.643,450.439 197.643,480.594 214.904,480.594 300.782,394.716 245.617,339.562 	"/>
	<polygon style="fill:#91DC5A;" points="215.495,192.772 224.371,177.328 198.212,162.299 249.208,73.576 280.872,18.487 
		280.872,17.425 152.777,17.425 102.089,107.036 75.94,92.008 67.337,106.97 78.455,148.152 98.991,224.218 	"/>
	<polygon style="fill:#91DC5A;" points="446.915,195.027 473.075,179.987 464.471,165.036 347.213,133.371 315.766,249.863 
		324.643,265.308 350.792,250.279 402.113,339.562 433.452,394.081 434.492,394.672 498.019,283.926 	"/>
</g>
</svg>